<svg width="617" height="471" viewBox="0 0 617 471" fill="none" xmlns="http://www.w3.org/2000/svg">
<path opacity="0.4" fill-rule="evenodd" clip-rule="evenodd" d="M332.416 5.74708C385.257 -7.85653 443.999 9.05865 490.138 40.1572C535.385 70.6542 552.498 131.248 585.699 176.462C618.898 221.673 670.324 252.974 686.792 307.964C703.477 363.676 708.484 433.644 676.957 481.185C643.04 532.331 561.84 514.418 520.527 558.688C486.091 595.588 505.594 669.48 469.078 703.942C433.445 737.57 379.576 738.588 332.416 736.215C286.114 733.885 230.829 729.659 201.721 690.49C169.828 647.575 203.284 577.213 178.489 529.087C159.244 491.737 107.901 490.031 81.8777 457.887C47.8249 415.825 -15.181 366.216 4.84904 314.608C27.0347 257.445 120.858 290.986 162.937 249.032C195.95 216.119 179.982 151.857 207.02 113.045C239.532 66.3737 279.978 19.2473 332.416 5.74708Z" fill="#0090B8" stroke="black"/>
</svg>
