<svg width="673" height="709" viewBox="0 0 673 709" fill="none" xmlns="http://www.w3.org/2000/svg">
<g opacity="0.3" filter="url(#filter0_f_140_65)">
<path fill-rule="evenodd" clip-rule="evenodd" d="M268.031 151.031C337.974 153.576 293.87 301.368 351.754 340.711C397.517 371.816 480.36 274.474 514.132 318.305C548.26 362.595 465.137 417.696 453.156 472.31C446.879 500.924 455.172 530.074 461.397 558.698C472.106 607.941 509.087 651.999 503.116 702.038C496.638 756.327 478.177 825.308 427.219 845.121C374.562 865.595 323.522 804.055 268.031 793.443C224.132 785.048 173.148 813.754 135.692 789.369C97.3921 764.435 99.3532 707.084 75.5015 668.101C54.8238 634.306 15.8543 612.661 4.37238 574.742C-7.26756 536.301 7.60797 495.956 11.2647 455.959C15.3908 410.828 -9.46325 349.019 27.4168 322.68C69.82 292.398 138.903 364.771 181.322 334.511C237.09 294.727 199.572 148.541 268.031 151.031Z" fill="#D1E4D2"/>
<path fill-rule="evenodd" clip-rule="evenodd" d="M268.031 151.031C337.974 153.576 293.87 301.368 351.754 340.711C397.517 371.816 480.36 274.474 514.132 318.305C548.26 362.595 465.137 417.696 453.156 472.31C446.879 500.924 455.172 530.074 461.397 558.698C472.106 607.941 509.087 651.999 503.116 702.038C496.638 756.327 478.177 825.308 427.219 845.121C374.562 865.595 323.522 804.055 268.031 793.443C224.132 785.048 173.148 813.754 135.692 789.369C97.3921 764.435 99.3532 707.084 75.5015 668.101C54.8238 634.306 15.8543 612.661 4.37238 574.742C-7.26756 536.301 7.60797 495.956 11.2647 455.959C15.3908 410.828 -9.46325 349.019 27.4168 322.68C69.82 292.398 138.903 364.771 181.322 334.511C237.09 294.727 199.572 148.541 268.031 151.031Z" stroke="black"/>
</g>
<defs>
<filter id="filter0_f_140_65" x="-150.5" y="0.5" width="823.299" height="999.263" filterUnits="userSpaceOnUse" color-interpolation-filters="sRGB">
<feFlood flood-opacity="0" result="BackgroundImageFix"/>
<feBlend mode="normal" in="SourceGraphic" in2="BackgroundImageFix" result="shape"/>
<feGaussianBlur stdDeviation="75" result="effect1_foregroundBlur_140_65"/>
</filter>
</defs>
</svg>
