<svg width="541" height="693" viewBox="0 0 541 693" fill="none" xmlns="http://www.w3.org/2000/svg">
<g opacity="0.3" filter="url(#filter0_f_140_66)">
<path fill-rule="evenodd" clip-rule="evenodd" d="M419.031 -155.969C488.974 -153.424 444.87 -5.63223 502.754 33.7112C548.517 64.8157 631.36 -32.5258 665.132 11.3046C699.26 55.5952 616.137 110.696 604.156 165.31C597.879 193.924 606.172 223.074 612.397 251.698C623.106 300.941 660.087 344.999 654.116 395.038C647.638 449.327 629.177 518.308 578.219 538.121C525.562 558.595 474.522 497.055 419.031 486.443C375.132 478.048 324.148 506.754 286.692 482.369C248.392 457.435 250.353 400.084 226.501 361.101C205.824 327.306 166.854 305.661 155.372 267.742C143.732 229.301 158.608 188.956 162.265 148.959C166.391 103.828 141.537 42.0186 178.417 15.6804C220.82 -14.6022 289.903 57.7714 332.322 27.5108C388.09 -12.2729 350.572 -158.459 419.031 -155.969Z" fill="#D1E4D2"/>
<path fill-rule="evenodd" clip-rule="evenodd" d="M419.031 -155.969C488.974 -153.424 444.87 -5.63223 502.754 33.7112C548.517 64.8157 631.36 -32.5258 665.132 11.3046C699.26 55.5952 616.137 110.696 604.156 165.31C597.879 193.924 606.172 223.074 612.397 251.698C623.106 300.941 660.087 344.999 654.116 395.038C647.638 449.327 629.177 518.308 578.219 538.121C525.562 558.595 474.522 497.055 419.031 486.443C375.132 478.048 324.148 506.754 286.692 482.369C248.392 457.435 250.353 400.084 226.501 361.101C205.824 327.306 166.854 305.661 155.372 267.742C143.732 229.301 158.608 188.956 162.265 148.959C166.391 103.828 141.537 42.0186 178.417 15.6804C220.82 -14.6022 289.903 57.7714 332.322 27.5108C388.09 -12.2729 350.572 -158.459 419.031 -155.969Z" stroke="black"/>
</g>
<defs>
<filter id="filter0_f_140_66" x="0.5" y="-306.5" width="823.299" height="999.263" filterUnits="userSpaceOnUse" color-interpolation-filters="sRGB">
<feFlood flood-opacity="0" result="BackgroundImageFix"/>
<feBlend mode="normal" in="SourceGraphic" in2="BackgroundImageFix" result="shape"/>
<feGaussianBlur stdDeviation="75" result="effect1_foregroundBlur_140_66"/>
</filter>
</defs>
</svg>
