<svg width="947" height="730" viewBox="0 0 947 730" fill="none" xmlns="http://www.w3.org/2000/svg">
<g opacity="0.4" filter="url(#filter0_f_140_63)">
<path fill-rule="evenodd" clip-rule="evenodd" d="M371.871 -118.736C453.014 -111.163 436.549 14.2511 494.898 64.475C530.132 94.8028 589.628 85.4851 633.017 106.044C690.807 133.427 770.263 150.419 791.601 205.063C812.193 257.799 755.024 309.714 732.958 361.985C713.321 408.499 703.981 459.156 668.16 497.467C632.526 535.578 586.138 581.859 530.176 578.862C465.134 575.378 429.711 508.021 371.871 481.597C342.718 468.278 308.403 471.195 276.861 463.135C240.541 453.854 206.453 442.394 171.208 430.32C110.399 409.487 36.9164 407.683 -7.60238 365.68C-53.4635 322.411 -74.8906 259.195 -72.8694 200.037C-70.7709 138.613 -56.3237 62.1406 3.8324 30.9855C71.3413 -3.97755 164.51 69.1985 235.609 40.2747C304.935 12.0723 295.929 -125.824 371.871 -118.736Z" fill="#0090B8"/>
<path fill-rule="evenodd" clip-rule="evenodd" d="M371.871 -118.736C453.014 -111.163 436.549 14.2511 494.898 64.475C530.132 94.8028 589.628 85.4851 633.017 106.044C690.807 133.427 770.263 150.419 791.601 205.063C812.193 257.799 755.024 309.714 732.958 361.985C713.321 408.499 703.981 459.156 668.16 497.467C632.526 535.578 586.138 581.859 530.176 578.862C465.134 575.378 429.711 508.021 371.871 481.597C342.718 468.278 308.403 471.195 276.861 463.135C240.541 453.854 206.453 442.394 171.208 430.32C110.399 409.487 36.9164 407.683 -7.60238 365.68C-53.4635 322.411 -74.8906 259.195 -72.8694 200.037C-70.7709 138.613 -56.3237 62.1406 3.8324 30.9855C71.3413 -3.97755 164.51 69.1985 235.609 40.2747C304.935 12.0723 295.929 -125.824 371.871 -118.736Z" stroke="black"/>
</g>
<defs>
<filter id="filter0_f_140_63" x="-223.5" y="-269.5" width="1170" height="999" filterUnits="userSpaceOnUse" color-interpolation-filters="sRGB">
<feFlood flood-opacity="0" result="BackgroundImageFix"/>
<feBlend mode="normal" in="SourceGraphic" in2="BackgroundImageFix" result="shape"/>
<feGaussianBlur stdDeviation="75" result="effect1_foregroundBlur_140_63"/>
</filter>
</defs>
</svg>
