<svg width="767" height="621" viewBox="0 0 767 621" fill="none" xmlns="http://www.w3.org/2000/svg">
<g opacity="0.4" filter="url(#filter0_f_140_67)">
<path fill-rule="evenodd" clip-rule="evenodd" d="M482.416 155.747C535.257 142.143 593.999 159.059 640.138 190.157C685.385 220.654 702.498 281.248 735.699 326.462C768.898 371.673 820.324 402.974 836.792 457.964C853.477 513.676 858.484 583.644 826.957 631.185C793.04 682.331 711.84 664.418 670.527 708.688C636.091 745.588 655.594 819.48 619.078 853.942C583.445 887.57 529.576 888.588 482.416 886.215C436.114 883.885 380.829 879.659 351.721 840.49C319.828 797.575 353.284 727.213 328.489 679.087C309.244 641.737 257.901 640.031 231.878 607.887C197.825 565.825 134.819 516.216 154.849 464.608C177.035 407.445 270.858 440.986 312.937 399.032C345.95 366.119 329.982 301.857 357.02 263.045C389.532 216.374 429.978 169.247 482.416 155.747Z" fill="#0090B8"/>
<path fill-rule="evenodd" clip-rule="evenodd" d="M482.416 155.747C535.257 142.143 593.999 159.059 640.138 190.157C685.385 220.654 702.498 281.248 735.699 326.462C768.898 371.673 820.324 402.974 836.792 457.964C853.477 513.676 858.484 583.644 826.957 631.185C793.04 682.331 711.84 664.418 670.527 708.688C636.091 745.588 655.594 819.48 619.078 853.942C583.445 887.57 529.576 888.588 482.416 886.215C436.114 883.885 380.829 879.659 351.721 840.49C319.828 797.575 353.284 727.213 328.489 679.087C309.244 641.737 257.901 640.031 231.878 607.887C197.825 565.825 134.819 516.216 154.849 464.608C177.035 407.445 270.858 440.986 312.937 399.032C345.95 366.119 329.982 301.857 357.02 263.045C389.532 216.374 429.978 169.247 482.416 155.747Z" stroke="black"/>
</g>
<defs>
<filter id="filter0_f_140_67" x="0.5" y="0.499756" width="1000" height="1037" filterUnits="userSpaceOnUse" color-interpolation-filters="sRGB">
<feFlood flood-opacity="0" result="BackgroundImageFix"/>
<feBlend mode="normal" in="SourceGraphic" in2="BackgroundImageFix" result="shape"/>
<feGaussianBlur stdDeviation="75" result="effect1_foregroundBlur_140_67"/>
</filter>
</defs>
</svg>
